<svg viewBox="0 0 1200 430" xmlns="http://www.w3.org/2000/svg">
  <defs>
    <marker id="a" markerWidth="7" markerHeight="7" refX="6" refY="3.5" orient="auto"><polygon points="0,0 7,3.5 0,7" fill="#2c2417"/></marker>
  </defs>
  <rect x="0" y="0" width="1200" height="430" fill="#faf6ed" stroke="#2c2417" stroke-width="3"/>

  <rect x="0" y="0" width="1200" height="36" fill="#2c2417"/>
  <text x="16" y="24" font-family="'IBM Plex Mono', monospace" font-size="14" fill="#faf6ed" font-weight="bold">muxr -- tmux session manager</text>
  <text x="1184" y="24" font-family="'IBM Plex Mono', monospace" font-size="11" fill="#c4b99a" text-anchor="end">one command to open -- one keybind to switch</text>

  <!-- Left: Config -->
  <rect x="40" y="56" width="260" height="280" fill="none" stroke="#2c2417" stroke-width="1.5"/>
  <rect x="40" y="56" width="260" height="24" fill="#2c2417"/>
  <text x="170" y="72" font-family="'IBM Plex Mono', monospace" font-size="10" fill="#faf6ed" text-anchor="middle" font-weight="bold">config.toml</text>

  <text x="56" y="100" font-family="'IBM Plex Mono', monospace" font-size="9" fill="#2c2417" font-weight="bold">verticals</text>
  <text x="56" y="116" font-family="'IBM Plex Mono', monospace" font-size="9" fill="#6b5d4f">  work/  api, auth, frontend</text>
  <text x="56" y="132" font-family="'IBM Plex Mono', monospace" font-size="9" fill="#6b5d4f">  personal/  blog, tools</text>
  <line x1="56" y1="142" x2="284" y2="142" stroke="#c4b99a" stroke-width="0.8"/>
  <text x="56" y="160" font-family="'IBM Plex Mono', monospace" font-size="9" fill="#2c2417" font-weight="bold">remotes</text>
  <text x="56" y="176" font-family="'IBM Plex Mono', monospace" font-size="9" fill="#6b5d4f">  remote-A  SSH, auto-reconnect</text>
  <text x="56" y="192" font-family="'IBM Plex Mono', monospace" font-size="9" fill="#6b5d4f">  remote-B  SSH, auto-reconnect</text>
  <line x1="56" y1="202" x2="284" y2="202" stroke="#c4b99a" stroke-width="0.8"/>
  <text x="56" y="220" font-family="'IBM Plex Mono', monospace" font-size="9" fill="#2c2417" font-weight="bold">tool per session</text>
  <text x="56" y="236" font-family="'IBM Plex Mono', monospace" font-size="9" fill="#6b5d4f">  claude, vim, shell</text>
  <line x1="56" y1="246" x2="284" y2="246" stroke="#c4b99a" stroke-width="0.8"/>
  <text x="56" y="264" font-family="'IBM Plex Mono', monospace" font-size="9" fill="#2c2417" font-weight="bold">session naming</text>
  <text x="56" y="280" font-family="'IBM Plex Mono', monospace" font-size="9" fill="#6b5d4f">  vertical / context</text>
  <text x="170" y="322" font-family="'IBM Plex Mono', monospace" font-size="9" fill="#6b5d4f" text-anchor="middle">one config file, everything</text>

  <!-- Arrow -->
  <line x1="300" y1="196" x2="370" y2="196" stroke="#2c2417" stroke-width="1.5" marker-end="url(#a)"/>

  <!-- Center: muxr commands -->
  <rect x="380" y="56" width="200" height="280" fill="none" stroke="#2c2417" stroke-width="2.5"/>
  <rect x="380" y="56" width="200" height="28" fill="#2c2417"/>
  <text x="480" y="74" font-family="'IBM Plex Mono', monospace" font-size="12" fill="#faf6ed" text-anchor="middle" font-weight="bold">muxr</text>

  <text x="396" y="104" font-family="'IBM Plex Mono', monospace" font-size="10" fill="#2c2417" font-weight="bold">open</text>
  <text x="396" y="120" font-family="'IBM Plex Mono', monospace" font-size="9" fill="#6b5d4f">  new-session + cd + tool</text>
  <text x="396" y="144" font-family="'IBM Plex Mono', monospace" font-size="10" fill="#2c2417" font-weight="bold">switch</text>
  <text x="396" y="160" font-family="'IBM Plex Mono', monospace" font-size="9" fill="#6b5d4f">  fuzzy filter, attach</text>
  <text x="396" y="184" font-family="'IBM Plex Mono', monospace" font-size="10" fill="#2c2417" font-weight="bold">save / restore</text>
  <text x="396" y="200" font-family="'IBM Plex Mono', monospace" font-size="9" fill="#6b5d4f">  survives reboots</text>
  <text x="396" y="224" font-family="'IBM Plex Mono', monospace" font-size="10" fill="#2c2417" font-weight="bold">claude-status</text>
  <text x="396" y="240" font-family="'IBM Plex Mono', monospace" font-size="9" fill="#6b5d4f">  tmux statusline</text>
  <text x="480" y="320" font-family="'IBM Plex Mono', monospace" font-size="9" fill="#6b5d4f" text-anchor="middle">server isolation</text>

  <!-- Arrows -->
  <line x1="580" y1="110" x2="650" y2="100" stroke="#2c2417" stroke-width="1.5" marker-end="url(#a)"/>
  <line x1="580" y1="155" x2="650" y2="155" stroke="#2c2417" stroke-width="1.5" marker-end="url(#a)"/>
  <line x1="580" y1="200" x2="650" y2="230" stroke="#2c2417" stroke-width="1.5" stroke-dasharray="5,3" marker-end="url(#a)"/>

  <!-- Right: Sessions + TUI -->
  <rect x="660" y="56" width="500" height="280" fill="none" stroke="#2c2417" stroke-width="1.5"/>
  <rect x="660" y="56" width="500" height="24" fill="#2c2417"/>
  <text x="910" y="72" font-family="'IBM Plex Mono', monospace" font-size="10" fill="#faf6ed" text-anchor="middle" font-weight="bold">RUNNING SESSIONS</text>

  <text x="676" y="98" font-family="'IBM Plex Mono', monospace" font-size="8" fill="#6b5d4f">SESSION</text>
  <text x="830" y="98" font-family="'IBM Plex Mono', monospace" font-size="8" fill="#6b5d4f">TOOL</text>
  <text x="910" y="98" font-family="'IBM Plex Mono', monospace" font-size="8" fill="#6b5d4f">DIR</text>
  <line x1="676" y1="104" x2="1000" y2="104" stroke="#c4b99a" stroke-width="0.8"/>

  <rect x="676" y="108" width="320" height="20" fill="none" stroke="#2c2417" stroke-width="1"/>
  <text x="686" y="122" font-family="'IBM Plex Mono', monospace" font-size="9" fill="#2c2417" font-weight="bold">work/api</text>
  <text x="830" y="122" font-family="'IBM Plex Mono', monospace" font-size="9" fill="#6b5d4f">claude</text>
  <text x="910" y="122" font-family="'IBM Plex Mono', monospace" font-size="9" fill="#6b5d4f">~/work</text>

  <rect x="676" y="132" width="320" height="20" fill="none" stroke="#2c2417" stroke-width="1"/>
  <text x="686" y="146" font-family="'IBM Plex Mono', monospace" font-size="9" fill="#2c2417" font-weight="bold">work/auth</text>
  <text x="830" y="146" font-family="'IBM Plex Mono', monospace" font-size="9" fill="#6b5d4f">claude</text>
  <text x="910" y="146" font-family="'IBM Plex Mono', monospace" font-size="9" fill="#6b5d4f">~/work</text>

  <rect x="676" y="156" width="320" height="20" fill="none" stroke="#2c2417" stroke-width="1"/>
  <text x="686" y="170" font-family="'IBM Plex Mono', monospace" font-size="9" fill="#2c2417" font-weight="bold">personal/blog</text>
  <text x="830" y="170" font-family="'IBM Plex Mono', monospace" font-size="9" fill="#6b5d4f">vim</text>
  <text x="910" y="170" font-family="'IBM Plex Mono', monospace" font-size="9" fill="#6b5d4f">~/personal</text>

  <line x1="676" y1="184" x2="996" y2="184" stroke="#c4b99a" stroke-width="0.5" stroke-dasharray="3,3"/>

  <rect x="676" y="190" width="320" height="20" fill="none" stroke="#2c2417" stroke-width="1" stroke-dasharray="5,3"/>
  <text x="686" y="204" font-family="'IBM Plex Mono', monospace" font-size="9" fill="#2c2417">remote-A/session</text>
  <text x="830" y="204" font-family="'IBM Plex Mono', monospace" font-size="9" fill="#6b5d4f">SSH</text>

  <rect x="676" y="214" width="320" height="20" fill="none" stroke="#2c2417" stroke-width="1" stroke-dasharray="5,3"/>
  <text x="686" y="228" font-family="'IBM Plex Mono', monospace" font-size="9" fill="#2c2417">remote-B/session</text>
  <text x="830" y="228" font-family="'IBM Plex Mono', monospace" font-size="9" fill="#6b5d4f">SSH</text>

  <!-- TUI -->
  <line x1="1010" y1="86" x2="1010" y2="330" stroke="#c4b99a" stroke-width="0.5" stroke-dasharray="3,3"/>
  <rect x="1020" y="86" width="130" height="240" fill="none" stroke="#2c2417" stroke-width="1.5"/>
  <rect x="1020" y="86" width="130" height="20" fill="#2c2417"/>
  <text x="1085" y="100" font-family="'IBM Plex Mono', monospace" font-size="9" fill="#faf6ed" text-anchor="middle" font-weight="bold">muxr switch</text>
  <text x="1032" y="124" font-family="'IBM Plex Mono', monospace" font-size="9" fill="#2c2417" font-weight="bold">&gt; work/api</text>
  <text x="1032" y="142" font-family="'IBM Plex Mono', monospace" font-size="9" fill="#6b5d4f">  work/auth</text>
  <text x="1032" y="160" font-family="'IBM Plex Mono', monospace" font-size="9" fill="#6b5d4f">  personal/blog</text>
  <line x1="1025" y1="168" x2="1145" y2="168" stroke="#c4b99a" stroke-width="0.5" stroke-dasharray="3,3"/>
  <text x="1032" y="186" font-family="'IBM Plex Mono', monospace" font-size="9" fill="#6b5d4f">  remote-A</text>
  <text x="1032" y="204" font-family="'IBM Plex Mono', monospace" font-size="9" fill="#6b5d4f">  remote-B</text>
  <line x1="1025" y1="216" x2="1145" y2="216" stroke="#2c2417" stroke-width="0.5"/>
  <text x="1032" y="234" font-family="'IBM Plex Mono', monospace" font-size="8" fill="#6b5d4f">j/k  navigate</text>
  <text x="1032" y="248" font-family="'IBM Plex Mono', monospace" font-size="8" fill="#6b5d4f">Enter  attach</text>
  <text x="1032" y="262" font-family="'IBM Plex Mono', monospace" font-size="8" fill="#6b5d4f">d    kill</text>
  <text x="1032" y="276" font-family="'IBM Plex Mono', monospace" font-size="8" fill="#6b5d4f">/    filter</text>

  <!-- Footer -->
  <line x1="40" y1="360" x2="1160" y2="360" stroke="#c4b99a" stroke-width="1"/>
  <text x="600" y="380" font-family="'IBM Plex Mono', monospace" font-size="10" fill="#6b5d4f" text-anchor="middle">one command to open -- one keybind to switch -- survives reboots</text>
  <text x="590" y="408" text-anchor="middle" fill="#2c2417" font-family="'IBM Plex Mono', monospace" font-size="9" font-weight="600">Built with GitLab</text>
  <g transform="translate(634, 397) scale(0.045)">
    <path d="M282.83,170.73l-.27-.69-26.14-68.22a6.81,6.81,0,0,0-2.69-3.24,7,7,0,0,0-8,.43,7,7,0,0,0-2.32,3.52l-17.65,54H154.29l-17.65-54A6.86,6.86,0,0,0,134.32,99a7,7,0,0,0-8-.43,6.87,6.87,0,0,0-2.69,3.24L97.44,170l-.26.69a48.54,48.54,0,0,0,16.1,56.1l.09.07.24.17,39.82,29.82,19.7,14.91,12,9.06a8.07,8.07,0,0,0,9.76,0l12-9.06,19.7-14.91,40.06-30,.1-.08A48.56,48.56,0,0,0,282.83,170.73Z" fill="#E24329"/>
    <path d="M282.83,170.73l-.27-.69a88.3,88.3,0,0,0-35.15,15.8L190,229.25c19.55,14.79,36.57,27.64,36.57,27.64l40.06-30,.1-.08A48.56,48.56,0,0,0,282.83,170.73Z" fill="#FC6D26"/>
    <path d="M153.43,256.89l19.7,14.91,12,9.06a8.07,8.07,0,0,0,9.76,0l12-9.06,19.7-14.91S209.55,244,190,229.25C170.45,244,153.43,256.89,153.43,256.89Z" fill="#FCA326"/>
    <path d="M132.58,185.84A88.19,88.19,0,0,0,97.44,170l-.26.69a48.54,48.54,0,0,0,16.1,56.1l.09.07.24.17,39.82,29.82s17-12.85,36.57-27.64Z" fill="#FC6D26"/>
  </g>
</svg>
